<svg width="120" height="40" xmlns="http://www.w3.org/2000/svg" viewBox="0 0 865.04 188.8"><path d="M49.44 41.6c8.4-7.6 18.1-12.2 24.9-11.9a8.48 8.48 0 016.2 2.6 8.77 8.77 0 012 5.9v1l-1-.1c-6.3-.6-15.7 3.9-24 11.4s-13.7 16.4-13.8 22.7v1l-1-.1a8.47 8.47 0 01-5.7-2.6 8.81 8.81 0 01-2-6.4c.4-6.7 6.1-16 14.4-23.5M18.14 9.8c-8.1 7-17.6 21.4-18.1 37.6a71.88 71.88 0 0018.3 50.2c12.7 14 30.7 22.6 48.4 23.5a54.73 54.73 0 0039.5-13.8c6.7-5.9 8.8-11.3 11.6-17.2-5.4 6-6.1 6.7-7.4 7.9-9.6 8.7-22.8 12.7-36.6 11.6A66.45 66.45 0 0129.94 88c-22.7-24.7-23.4-61.7-1.5-81.4A45.55 45.55 0 0138.74 0s-12.7 3-20.6 9.8m17.2 6.8c-5.6 5-9.1 11.7-11 20.7 0 0 6-8.9 9.2-11.3 7.3-5.5 18.6-11.4 36.3-6.7 11.5 3 14.8 8.5 16.3 10.6 6.1 8.6-.3 23.4-13.5 36.2-13.1 12.6-31.8 16.7-38.4 11.7a63.73 63.73 0 009.3 9.4c11.3 6.8 27.5-2.4 37.8-12.2 9-9.4 20-22.6 13.5-36.8 4.6 8.1 7.9 18.2 7.9 25.4.1 23.7-17.2 32.4-22.2 35 7.9-.3 26.1-5.5 32-27.2 4.3-15.5-.5-33.4-12.5-46.7-9.6-10.7-22.8-17.2-36-17.9a39.07 39.07 0 00-28.7 9.8" className="logo__roundel"></path><path d="M510.94 93.4h-17l-6.8-16.5h-31.6l-6.9 16.5h-16.2s25.6-62.2 27.1-65.6 3.8-7.5 9.9-7.5h11.3l30.2 73.1M459.84 65h23l-11.4-30h-.2zm-246.9 28.4h-17l-6.8-16.5h-31.6l-6.9 16.5h-16.2s25.6-62.2 27.1-65.6 3.8-7.5 9.9-7.5h11.3l30.2 73.1M161.74 65h23l-11.4-30h-.2zm93.5-1a21.6 21.6 0 005.9-2.9 22.89 22.89 0 009.8-18.7 21.64 21.64 0 00-10.9-18.4c-6.9-4.2-14.3-3.8-22.2-3.8h-18.8v73.1h14.6v-28h3c1.8 0 2.7 1.4 6.2 6.4 5.8 8.2 15.4 21.6 15.4 21.6h18.2L255.24 64m-21.5-10.6V33.3h2.8c3.3 0 8-.2 11.3.6a10.18 10.18 0 017.9 9.6c0 4.3-3 7.8-7.4 9.1-3.7 1-8 .8-11.8.8h-2.8zm85.7 10.6a21.6 21.6 0 005.9-2.9 22.89 22.89 0 009.8-18.7 21.64 21.64 0 00-10.9-18.4c-6.9-4.2-14.3-3.8-22.2-3.8h-18.8v73.1h14.6v-28h3c1.8 0 2.7 1.4 6.2 6.4 5.8 8.2 15.4 21.6 15.4 21.6h18.2L319.44 64m-21.5-10.6V33.3h2.8c3.3 0 8-.2 11.3.6a10.18 10.18 0 017.9 9.6c0 4.3-3 7.8-7.4 9.1-3.7 1-8 .8-11.8.8h-2.8zm66.2-33.2h-7.8c-3.5 0-7.8 2.1-7.8 7.9v65.2h15.6V20.2m35.9 73.2h18.4l30.2-73.1h-17.4l-21.9 56.8h-.3l-21.8-56.8h-17.5l30.3 73.1M533.54 22.7h-8.3v-2.4h19.3v2.4h-8.3v25.6h-2.8V22.7m11.2 9.7v15.9h2.5V38.2c0-3.7 1.1-8.2 5.1-8.2a9.91 9.91 0 011.8.2v-2.6a9 9 0 00-1.8-.2c-2.6 0-4.3 2.1-5.2 4.4h-.1v-3.9h-2.5a27.63 27.63 0 01.2 4.5m24.9 12.6v3.3h2.5a28.86 28.86 0 01-.2-4.3v-9c0-5.3-2.1-7.6-7.2-7.6a15.5 15.5 0 00-6 1.4v2.4a11 11 0 016-1.7c3.4 0 4.6 1.8 4.6 5.3v1h-.5c-5.3 0-12.6.3-12.6 7.2 0 1.8.9 5.8 6.7 5.8 2.6-.1 5.5-1.4 6.7-3.8m-.3-5.8c0 2.2-.1 7.4-6.1 7.4-2.3 0-4.2-1-4.2-3.7 0-4.5 5.2-4.9 9.6-4.9h.7v1.2zm9.7-19h-2.5v3.4h2.5v-3.4zm-2.5 28.1h2.5V27.9h-2.5v20.4zm7.4-15.7v15.6h2.5V36.9c0-3.4 1.4-7.5 6.1-7.5 3.5 0 4.8 2.5 4.8 6.3v12.4h2.5V35c0-4.5-1.9-7.9-7-7.9-4.2 0-5.8 2.3-6.6 4.1h-.1v-3.6h-2.4a45.26 45.26 0 01.2 5m21 12.7l-.2 2.5a15.93 15.93 0 005.7 1c3.1 0 7.1-1.5 7.1-5.8 0-6.7-10.1-6.2-10.1-10 0-2.6 1.8-3.4 4.4-3.4a11.77 11.77 0 014.5 1l.2-2.2a15.64 15.64 0 00-5.1-.9c-3.4 0-6.7 1.5-6.7 5.6 0 5.9 9.8 5.2 9.8 10 0 2.3-2.1 3.6-4.5 3.6a12.5 12.5 0 01-5.1-1.4m54.9 3l8.1-28h-2.6l-7 24.8h-.1l-7.1-24.8h-3.3l-7.2 24.8h-.1l-6.9-24.8h-2.8l8 28h3.3l7.2-24.8h.1l7.1 24.8h3.3m21.3-3.3v3.3h2.5a28.86 28.86 0 01-.2-4.3v-9c0-5.3-2.1-7.6-7.2-7.6a15.5 15.5 0 00-6 1.4v2.4a11 11 0 016-1.7c3.4 0 4.6 1.8 4.6 5.3v1h-.5c-5.3 0-12.6.3-12.6 7.2 0 1.8.9 5.8 6.7 5.8 2.6-.1 5.5-1.4 6.7-3.8m-.3-5.8c0 2.2-.1 7.4-6.1 7.4-2.3 0-4.2-1-4.2-3.7 0-4.5 5.2-4.9 9.6-4.9h.7v1.2zm8 9.1h2.5V18.2h-2.5v30.1zm22-.7V45a12.65 12.65 0 01-5.7 1.5c-4.4 0-6.7-3.5-6.7-7.8h14v-1.3c0-5.5-2.4-10.1-8.1-10.1-5.2 0-8.6 4.4-8.6 10.7 0 6.1 2.5 10.7 9.3 10.7a17.47 17.47 0 005.8-1.1m-12.5-11c0-3.4 2.3-7.1 6-7.1s5.2 3.5 5.2 7.1h-11.2zm17.4 8.7l-.2 2.5a15.93 15.93 0 005.7 1c3.1 0 7.1-1.5 7.1-5.8 0-6.7-10.1-6.2-10.1-10 0-2.6 1.8-3.4 4.4-3.4a11.77 11.77 0 014.5 1l.2-2.2a15.54 15.54 0 00-5-.9c-3.4 0-6.7 1.5-6.7 5.6 0 5.9 9.8 5.2 9.8 10 0 2.3-2.1 3.6-4.5 3.6a13.42 13.42 0 01-5.2-1.4M533.54 67.6h-8.3v-2.4h19.3v2.4h-8.3v25.6h-2.8V67.6m11.6 9.7v15.9h2.5V83.1c0-3.7 1.1-8.2 5.1-8.2a9.91 9.91 0 011.8.2v-2.6a9 9 0 00-1.8-.2c-2.6 0-4.3 2.1-5.2 4.4v-3.9h-2.5c.1 1.4.1 2.3.1 4.5m27.3 15.3V90a12.65 12.65 0 01-5.7 1.5c-4.4 0-6.7-3.5-6.7-7.8h14v-1.3c0-5.5-2.4-10.1-8.1-10.1-5.2 0-8.6 4.4-8.6 10.7 0 6.1 2.5 10.7 9.3 10.7a17.47 17.47 0 005.8-1.1m-12.5-11.1c0-3.4 2.3-7.1 6-7.1s5.2 3.5 5.2 7.1h-11.2zm18.2-3.9v15.6h2.5V81.9c0-3.4 1.4-7.5 6.1-7.5 3.5 0 4.8 2.5 4.8 6.3v12.4h2.5V80c0-4.5-1.9-7.9-7-7.9-4.2 0-5.8 2.3-6.6 4.1h-.1v-3.6h-2.4a43.5 43.5 0 01.2 5m33.4 12.3v3.3h2.5a28.86 28.86 0 01-.2-4.3v-9c0-5.3-2.1-7.6-7.2-7.6a15.5 15.5 0 00-6 1.4v2.4a11 11 0 016-1.7c3.4 0 4.6 1.8 4.6 5.2v1h-.5c-5.3 0-12.6.3-12.6 7.2 0 1.8.9 5.8 6.7 5.8a7.07 7.07 0 006.7-3.7m-.2-5.8c0 2.2-.1 7.4-6.1 7.4-2.3 0-4.2-1-4.2-3.7 0-4.5 5.2-4.9 9.6-4.9h.7v1.2zm23.9 4.3V72.8h-2.5v11.3c0 3.4-1.4 7.5-6.1 7.5-3.5 0-4.8-2.5-4.8-6.3V72.9h-2.5V86c0 4.5 1.9 7.9 7 7.9 4.2 0 5.8-2.3 6.6-4.1h.1v3.6h2.4a43.5 43.5 0 01-.2-5m26.7-23.2l-11.5 28h2.7l3-7.5h14.1l3 7.5h2.9l-11.1-28h-3.1m7.4 18.1h-12.1l6.1-15.4zm9.9-6v15.9h2.5V83.1c0-3.7 1.1-8.2 5.1-8.2a9.91 9.91 0 011.8.2v-2.6a9 9 0 00-1.8-.2c-2.6 0-4.3 2.1-5.3 4.4v-3.9h-2.5a28.29 28.29 0 01.2 4.5m12.7 0v15.9h2.5V83.1c0-3.7 1.1-8.2 5.1-8.2a9.91 9.91 0 011.8.2v-2.6a9 9 0 00-1.8-.2c-2.6 0-4.3 2.1-5.2 4.4h-.1v-3.9h-2.5a28.29 28.29 0 01.2 4.5m15.7-12.2h-2.5v3.4h2.5v-3.4zm-2.6 28.1h2.5V72.8h-2.5v20.4zm15 0l7.2-20.4h-2.6l-5.9 17.7h-.1l-5.7-17.7h-2.8l6.9 20.4h3m21.5-3.3v3.3h2.5a28.86 28.86 0 01-.2-4.3v-9c0-5.3-2.1-7.6-7.2-7.6a15.5 15.5 0 00-6 1.4v2.4a11 11 0 016-1.7c3.4 0 4.6 1.8 4.6 5.2v1h-.5c-5.3 0-12.6.3-12.6 7.2 0 1.8.9 5.8 6.7 5.8a7.17 7.17 0 006.7-3.7m-.3-5.8c0 2.2-.1 7.4-6.1 7.4-2.3 0-4.2-1-4.2-3.7 0-4.5 5.2-4.9 9.6-4.9h.7v1.2zm39.6-15.7l.2-2.6c-1.4-.8-4.8-1-6.4-1-8.7 0-14.1 6-14.1 14.5 0 8.7 5.3 14.5 14.1 14.5 1.8 0 4.9-.3 6.4-1.2l-.2-2.4c-1.6 1-4.4 1.2-6.3 1.2-7.4 0-11.3-5-11.3-12.1 0-6.9 4.1-12.1 11.3-12.1a13.64 13.64 0 016.3 1.2m11.9 21.4l-5.7-17h-2.8l7.3 20.7-.5 1.8c-.8 2.6-1.5 4.4-3.7 4.4a7.52 7.52 0 01-1.9-.3l-.2 2.2a11.76 11.76 0 002.7.3c2.8 0 4.3-2.8 5.2-5.6l8.2-23.5h-2.6l-6 17m35.8 3.4h2.5V79.1c0-4-2.3-6.9-6.5-6.9a6.79 6.79 0 00-6.5 4.3h-.1c-.6-3.6-3.6-4.3-5.4-4.3-4.4 0-5.6 2.6-6.4 4h-.1v-3.4h-2.4a38.54 38.54 0 01.2 4.8v15.6h2.5V81.9c0-5.1 2.7-7.5 5.5-7.5 3.2 0 4.3 2.3 4.3 5.2v13.6h2.5V81.9c0-5.1 2.7-7.5 5.5-7.5 3.2 0 4.3 2.3 4.3 5.2v13.6m7.8-15.9v15.9h2.5V83.1c0-3.7 1.1-8.2 5.1-8.2a9.91 9.91 0 011.8.2v-2.6a9 9 0 00-1.8-.2c-2.6 0-4.3 2.1-5.2 4.4h-.1v-3.9h-2.5a28.29 28.29 0 01.2 4.5m28.7 11.1V72.8h-2.5v11.3c0 3.4-1.4 7.5-6.1 7.5-3.5 0-4.8-2.5-4.8-6.3V72.9h-2.5V86c0 4.5 1.9 7.9 7 7.9 4.2 0 5.8-2.3 6.6-4.1h.1v3.6h2.4a43.5 43.5 0 01-.2-5M811.74 149.4h-42.7a5.36 5.36 0 00-5.4 5.3v26.7a5.38 5.38 0 005.4 5.4h42.7a5.44 5.44 0 005.4-5.4v-26.7a5.36 5.36 0 00-5.4-5.3m1.5 32a1.42 1.42 0 01-1.5 1.5h-42.7a1.54 1.54 0 01-1.5-1.5v-26.7a1.47 1.47 0 011.5-1.5h42.7a1.54 1.54 0 011.5 1.5v26.7zm-33.2-1h-9v-24.5h9c6.3 0 9.8 4 9.8 12.1.1 7.1-2.3 12.3-9.8 12.4m3.9-11.9c0-4.9-.5-8.8-5.8-8.8h-1.2v16.7h2.1c3.1 0 4.9-2.5 4.9-7.9m21.5-.9a6.08 6.08 0 004.3-5.7c0-.5-.1-6-7-6h-10.3v24.5h8.6c2.3 0 9.4 0 9.4-6.9.1-1.7-.6-5-5-5.9m-7.2-7.9h1.9c2.6 0 3.7.9 3.7 2.9a2.94 2.94 0 01-3.2 3h-2.3v-5.9h-.1zm2.5 16.7h-2.4v-6.3h2.6c3.1 0 3.8 1.8 3.8 3.1-.1 3.2-3.1 3.2-4 3.2m-284.5-21.9h2.4v26.8h-2.4v-26.8zm37.1 8.3h4.5v2.5h.1a6.8 6.8 0 016-2.9c4.3 0 6.2 3 6.2 7.1v11.4h-4.7v-9.7c0-2.2 0-5.2-3.1-5.2-3.4 0-4.2 3.7-4.2 6v8.9h-4.7v-18.1m37.1-.5c5.4 0 9.5 3.6 9.5 9.6 0 5.2-3.5 9.4-9.5 9.4s-9.5-4.2-9.5-9.4c0-5.9 4.1-9.6 9.5-9.6m0 15.4c3.6 0 4.6-3.2 4.6-6.3 0-2.8-1.5-5.4-4.6-5.4s-4.5 2.7-4.5 5.4c-.1 3 .9 6.3 4.5 6.3zm37.1-14.9v16.4c0 4.9-2 9.6-9.6 9.6a17 17 0 01-6.3-1.2l.4-4a13 13 0 005.3 1.6c5.2 0 5.5-3.9 5.5-7h-.1a6.39 6.39 0 01-5.6 2.9c-5.4 0-7.4-4.3-7.4-9.2 0-4.4 2.3-9.4 7.7-9.4a6 6 0 015.6 2.9h.1v-2.5h4.4m-4.7 8.7c0-3.1-1.2-5.6-3.9-5.6-3.2 0-4.2 3-4.2 5.7 0 2.5 1.3 5.5 4 5.5 2.9 0 4.1-2.5 4.1-5.6zm6.3-8.8h5l4 13.4h.1l3.7-13.4h5.5l3.9 13.4h.1l3.8-13.4h4.5l-5.6 18.1h-5.6l-3.9-13.8h-.1l-3.9 13.8h-5.4l-6.1-18.1m32 0h4.4v2.5h.1a6.36 6.36 0 015.4-2.9 5.38 5.38 0 015.4 3.2 6.26 6.26 0 015.7-3.2c4.5 0 5.7 3.1 5.7 7.1v11.4h-4.7v-10.8c0-1.7 0-4.1-2.7-4.1-3.1 0-3.5 3.7-3.5 6.1v8.8h-4.7v-10.8c0-1.7 0-4.1-2.7-4.1-3.1 0-3.5 3.7-3.5 6.1v8.8h-4.7v-18.1m29.9 0h4.5v2.5h.1a6.8 6.8 0 016-2.9c4.3 0 6.2 3 6.2 7.1v11.4h-4.7v-9.7c0-2.2 0-5.2-3.1-5.2-3.4 0-4.2 3.7-4.2 6v8.9h-4.7v-18.1m21.1-3.4h-4.1v-4.1h4.1v4.1zm3.9 21.5h-4.7v-18.1h4.7v18.1zm-.7-25.5h4.1v4.1h-4.1v-4.1zm5.3 8.3a17 17 0 016.3-1.4c5.5 0 7.8 2.3 7.8 7.6v2.3c0 1.8 0 3.2.1 4.5s.1 2.6.2 4h-4.2a14.76 14.76 0 01-.2-2.7h-.1a6.41 6.41 0 01-5.6 3.1c-3.2 0-6.3-1.9-6.3-5.4a5.39 5.39 0 013.1-5.2 14.07 14.07 0 016.1-1.1h2.6c0-2.9-1.3-3.9-4.1-3.9a9.56 9.56 0 00-5.6 2l-.1-3.8m5.5 14.2a3.94 3.94 0 003.3-1.6 5.74 5.74 0 001-3.7h-2c-2.1 0-5.2.4-5.2 3.1-.1 1.5 1.2 2.2 2.9 2.2zm28.6 3h-4.5v-2.5h-.1a7.39 7.39 0 01-5.9 2.9c-4.3 0-6.2-3-6.2-7.1v-11.4h4.7v9.7c0 2.2 0 5.2 3.1 5.2 3.4 0 4.2-3.7 4.2-6v-8.9h4.7v18.1m-406.9-31.5h-42.7a5.36 5.36 0 00-5.4 5.3v26.7a5.38 5.38 0 005.4 5.4h42.7a5.44 5.44 0 005.4-5.4v-26.7a5.36 5.36 0 00-5.4-5.3m1.5 32a1.42 1.42 0 01-1.5 1.5h-42.7a1.54 1.54 0 01-1.5-1.5v-26.7a1.47 1.47 0 011.5-1.5h42.7a1.54 1.54 0 011.5 1.5v26.7zm-33.2-1h-9v-24.5h9c6.3 0 9.8 4 9.8 12.1.1 7.1-2.3 12.3-9.8 12.4m3.9-11.9c0-4.9-.5-8.8-5.8-8.8h-1.2v16.7h2.1c3.1 0 4.9-2.5 4.9-7.9m21.5-.9a6.08 6.08 0 004.3-5.7c0-.5-.1-6-7-6h-10.2v24.5h8.7c2.3 0 9.4 0 9.4-6.9a6 6 0 00-5.2-5.9m-7.1-7.9h1.9c2.6 0 3.7.9 3.7 2.9a2.94 2.94 0 01-3.2 3h-2.3v-5.9h-.1zm2.4 16.7h-2.4v-6.3h2.6c3.1 0 3.8 1.8 3.8 3.1-.1 3.2-3.1 3.2-4 3.2m40.1-9.7a6.9 6.9 0 00-3.2-.7c-2.9 0-4.8 2.3-4.8 5.7s1.6 5.9 4.9 5.9a11.29 11.29 0 003.6-.8l.2 3.9a16.27 16.27 0 01-4.7.6c-5.9 0-8.9-4.1-8.9-9.6 0-5.2 3.1-9.4 8.8-9.4a15.1 15.1 0 014.6.6l-.5 3.8m10.9-4.4c5.4 0 9.5 3.6 9.5 9.6 0 5.2-3.5 9.4-9.5 9.4s-9.5-4.2-9.5-9.4c0-5.9 4.1-9.6 9.5-9.6m0 15.4c3.6 0 4.6-3.2 4.6-6.3 0-2.8-1.5-5.4-4.6-5.4s-4.5 2.7-4.5 5.4c0 3 .9 6.3 4.5 6.3zm11.9-14.9h4.4v2.5h.1a6.36 6.36 0 015.4-2.9 5.38 5.38 0 015.4 3.2 6.26 6.26 0 015.7-3.2c4.5 0 5.7 3.1 5.7 7.1v11.4h-4.7v-10.8c0-1.7 0-4.1-2.7-4.1-3.1 0-3.5 3.7-3.5 6.1v8.8h-4.7v-10.8c0-1.7 0-4.1-2.7-4.1-3.1 0-3.5 3.7-3.5 6.1v8.8h-4.7v-18.1m29.9 0h4.5v2.6h.1a6.16 6.16 0 015.6-3c5.6 0 7.6 4.4 7.6 9.4s-2 9.5-7.7 9.5a6.13 6.13 0 01-5.3-2.5h-.1v9.5h-4.7v-25.5m4.7 9c0 2.6 1 5.9 4.2 5.9s4-3.4 4-5.9-.8-5.8-3.9-5.8-4.3 3.2-4.3 5.8zm16.4-8.1a17 17 0 016.3-1.4c5.5 0 7.8 2.3 7.8 7.6v2.3c0 1.8 0 3.2.1 4.5s.1 2.6.2 4h-4.2a14.76 14.76 0 01-.2-2.7h-.1a6.41 6.41 0 01-5.6 3.1c-3.2 0-6.3-1.9-6.3-5.4a5.39 5.39 0 013.1-5.2 14.07 14.07 0 016.1-1.1h2.6c0-2.9-1.3-3.9-4.1-3.9a9.56 9.56 0 00-5.6 2l-.1-3.8m5.5 14.2a3.94 3.94 0 003.3-1.6 5.74 5.74 0 001-3.7h-2c-2.1 0-5.2.4-5.2 3.1-.1 1.5 1.2 2.2 2.9 2.2zm12-15.1h4.5v2.5h.1a6.8 6.8 0 016-2.9c4.3 0 6.2 3 6.2 7.1v11.4h-4.7v-9.7c0-2.2 0-5.2-3.1-5.2-3.4 0-4.2 3.7-4.2 6v8.9h-4.7v-18.1m27.7 13.2l4.4-13.2h4.8l-6.8 18c-1.5 4-2.6 8-7.5 8a12 12 0 01-3.3-.5l.3-3.5a7.38 7.38 0 002.4.3 3 3 0 003.1-3.2l-6.9-19h5.2l4.3 13.1m-220.5-12.2a17 17 0 016.3-1.4c5.5 0 7.8 2.3 7.8 7.6v2.3c0 1.8 0 3.2.1 4.5s.1 2.6.2 4h-4.2a13.71 13.71 0 01-.2-2.7h-.1a6.53 6.53 0 01-5.6 3.1c-3.2 0-6.3-1.9-6.3-5.4a5.39 5.39 0 013.1-5.2 14.07 14.07 0 016.1-1.1h2.6c0-2.9-1.3-3.9-4.1-3.9a9.56 9.56 0 00-5.6 2l-.1-3.8m5.5 14.1a3.94 3.94 0 003.3-1.6 5.74 5.74 0 001-3.7h-2c-2.1 0-5.2.4-5.2 3.1-.1 1.6 1.2 2.2 2.9 2.2zm266.8 3.1h-4.5v-2.5h-.1a7.44 7.44 0 01-6 2.9c-4.3 0-6.2-3-6.2-7.1v-11.4h4.7v9.7c0 2.2 0 5.2 3.1 5.2 3.4 0 4.2-3.7 4.2-6v-8.9h4.7V181"></path></svg>