<svg height="100" width="100" xmlns="http://www.w3.org/2000/svg" x="0" y="0" enableBackground="new 0 0 512.001 512.001" version="1.1" viewBox="0 0 512.001 512.001" xmlSpace="preserve"><path fill="#6f2cac" d="M182.045 343.467c0-19.213-15.631-34.845-34.845-34.845-19.213 0-34.844 15.631-34.844 34.845 0 19.213 15.631 34.844 34.844 34.844 19.214-.002 34.845-15.631 34.845-34.844zm-48.355 0c0-7.45 6.061-13.511 13.51-13.511s13.511 6.061 13.511 13.511c0 7.45-6.062 13.51-13.511 13.51-7.45-.001-13.51-6.062-13.51-13.51zM364.801 378.309c19.213 0 34.844-15.631 34.844-34.844s-15.631-34.845-34.844-34.845-34.844 15.631-34.844 34.845c0 19.215 15.631 34.844 34.844 34.844zm0-48.354c7.45 0 13.51 6.061 13.51 13.511 0 7.45-6.061 13.51-13.51 13.51-7.45 0-13.51-6.061-13.51-13.51-.001-7.45 6.059-13.511 13.51-13.511z"></path><path fill="#6f2cac" d="M467.391 495.195l-52.463-74.554C434.496 411.02 448 390.883 448 367.646V101.685c-.003-32.542-26.479-59.018-59.023-59.018h-58.308V31.999C330.669 14.355 316.315 0 298.67 0h-85.339c-17.645 0-32 14.355-32 31.999v10.668h-58.31c-32.544 0-59.019 26.475-59.022 59.018v265.961c0 23.238 13.504 43.375 33.073 52.996L44.61 495.195c-3.391 4.818-2.234 11.472 2.585 14.862a10.614 10.614 0 006.129 1.945c3.354 0 6.656-1.578 8.733-4.529l26.838-38.139h334.211l26.837 38.139a10.656 10.656 0 008.734 4.529c2.121 0 4.262-.631 6.129-1.945 4.817-3.39 5.975-10.045 2.585-14.862zm-40.724-271.196H266.665v-32.911l78.735-78.735h38.218l-31.66 31.661c-4.166 4.165-4.165 10.919 0 15.085a10.632 10.632 0 007.541 3.124c2.731 0 5.46-1.042 7.543-3.124l46.742-46.746h12.882v111.646zm-160.002-63.082v-48.564h48.564l-48.564 48.564zm-64-128.918c0-5.882 4.785-10.666 10.667-10.666h85.339c5.882 0 10.666 4.784 10.666 10.666v10.668H202.665V31.999zM123.021 64h265.956c17.077 0 31.529 11.419 36.142 27.02H86.879C91.494 75.42 105.944 64 123.021 64zm-37.688 48.353h159.999v32.914l-78.733 78.732h-38.212l31.656-31.657c4.165-4.165 4.165-10.919 0-15.086-4.165-4.165-10.919-4.165-15.086 0l-46.741 46.741H85.333V112.353zm159.999 63.085v48.561h-48.561l48.561-48.561zM85.333 367.646V245.332h17.257l.044.002.044-.002h68.295l.044.002.044-.002h255.607v122.314c0 20.781-16.908 37.688-37.69 37.688H123.021c-20.782-.001-37.688-16.907-37.688-37.688zm18.574 80.352l15.117-21.482c1.322.089 2.652.15 3.997.15h265.956a59.49 59.49 0 004-.151l15.117 21.483H103.907z"></path><path fill="#6f2cac" d="M219.734 293.688h72.532c5.89 0 10.667-4.775 10.667-10.667s-4.776-10.667-10.667-10.667h-72.532c-5.891 0-10.667 4.775-10.667 10.667s4.775 10.667 10.667 10.667zM330.115 165.855l-.554.554c-4.163 4.167-4.16 10.922.007 15.085a10.63 10.63 0 007.538 3.121c2.731 0 5.464-1.043 7.546-3.127l.554-.554c4.164-4.167 4.16-10.922-.006-15.085-4.168-4.165-10.922-4.161-15.085.006zM174.339 173.628c2.731 0 5.46-1.041 7.543-3.124l.554-.554c4.166-4.166 4.166-10.921.001-15.086s-10.919-4.165-15.086 0l-.554.554c-4.165 4.165-4.165 10.919 0 15.086a10.631 10.631 0 007.542 3.124z"></path></svg>