<svg width="100" height="53" version="1.1" viewBox="0 0 215 53"><g fill="#262262"><path d="M197.13 304.993c0-11.539-9.354-20.893-20.893-20.893-11.54 0-20.895 9.354-20.895 20.893 0 11.54 9.355 20.894 20.895 20.894 11.539 0 20.893-9.354 20.893-20.894m-10.655-8.821v11.284c0 5.63-4.58 10.21-10.21 10.21-5.63 0-10.21-4.58-10.21-10.21v-11.284a1.343 1.343 0 112.687 0v11.284c0 4.148 3.376 7.524 7.524 7.524s7.523-3.376 7.523-7.524v-11.284a1.342 1.342 0 112.686 0M210.296 312.708a6.978 6.978 0 01-6.97-6.97v-7.282a1.248 1.248 0 012.496 0v7.282a4.479 4.479 0 004.474 4.473 4.478 4.478 0 004.473-4.473v-7.282a1.248 1.248 0 112.497 0v7.282c0 3.843-3.128 6.97-6.97 6.97M319.57 312.636c-3.843 0-6.97-3.127-6.97-6.97v-7.282a1.248 1.248 0 112.497 0v7.281a4.479 4.479 0 004.473 4.473 4.478 4.478 0 004.474-4.473v-7.281a1.249 1.249 0 012.498 0v7.281c0 3.844-3.129 6.97-6.972 6.97M245.217 312.757a6.979 6.979 0 01-6.97-6.97v-7.282a1.25 1.25 0 012.496 0v7.281a4.478 4.478 0 004.474 4.473 1.248 1.248 0 010 2.498M308.135 312.687a6.977 6.977 0 01-6.97-6.97v-7.281a1.248 1.248 0 112.496 0v7.281a4.479 4.479 0 004.474 4.472 1.248 1.248 0 110 2.498M258.978 299.7a4.48 4.48 0 00-4.474 4.474v6.051h3.653a1.25 1.25 0 110 2.497h-3.653v5.466a1.248 1.248 0 11-2.496 0v-5.466h-1.826a1.249 1.249 0 110-2.497h1.826v-6.05a6.977 6.977 0 016.97-6.971 1.25 1.25 0 110 2.497M270.817 312.782a6.939 6.939 0 01-4.474-1.63v6.74a1.248 1.248 0 11-2.496 0v-19.458a1.249 1.249 0 112.496 0v7.378a4.478 4.478 0 004.474 4.473 4.478 4.478 0 004.47-4.473v-7.379a1.248 1.248 0 112.498 0v7.38c0 3.843-3.128 6.97-6.968 6.97M227.461 312.724c-4.393 0-7.967-3.48-7.967-7.757 0-4.277 3.574-7.756 7.967-7.756s7.965 3.48 7.965 7.756c0 4.277-3.572 7.757-7.965 7.757m0-13.016c-3.017 0-5.471 2.358-5.471 5.259 0 2.9 2.454 5.26 5.471 5.26 3.015 0 5.47-2.36 5.47-5.26s-2.455-5.26-5.47-5.26M289.807 312.705c-4.392 0-7.966-3.496-7.966-7.794 0-4.126 3.296-7.544 7.501-7.78l.072-.001a1.248 1.248 0 01.067 2.494c-2.382.133-4.34 1.743-4.948 3.881h11.991a1.247 1.247 0 011.244 1.326.7.7 0 01.004.08c0 4.298-3.573 7.794-7.965 7.794m0-2.497c2.63 0 4.83-1.807 5.352-4.207h-10.706c.522 2.4 2.724 4.207 5.354 4.207" transform="translate(0 -997.596) matrix(1.25 0 0 -1.25 -193.653 1404.955)"></path></g></svg>