<svg xmlns="http://www.w3.org/2000/svg" width="100" height="109" viewBox="153 0 149 109"><defs><path id="a" d="M0 107.215645h148.980534V.130422H0z"/></defs><g fill="none" fillRule="evenodd"><path fill="#00A6E6" d="M189.394754 83.609836l-4.28667-6.335977-4.311267 6.335977h-4.208454l6.363468-9.46358-6.258-9.248788h4.312152l4.102101 6.041134 4.07538-6.041134h4.313391l-6.258708 9.19536 6.468582 9.517008z"/><g transform="translate(153 .04947)"><path d="M50.014681 73.375041c1.919658 0 3.076443-.88183 3.076443-2.592963 0-1.737757-1.156785-2.592604-3.076443-2.592604h-3.023886v5.185567h3.023886zm.104937-8.526882c4.312506 0 6.679518 2.56544 6.679518 5.933919 0 3.368478-2.367012 5.907653-6.679518 5.907653h-3.128823v6.870617h-3.707658V64.848159h6.836481zM63.004101 73.375041h3.023356c1.920365 0 3.077327-.88183 3.077327-2.592963 0-1.737757-1.156962-2.592604-3.077327-2.592604H63.0041v5.185567zm6.337278 10.185307l-4.496898-6.870617h-1.84038v6.870617h-3.708365V64.848159h6.837542c4.312506 0 6.678633 2.56544 6.678633 5.933919 0 2.64711-1.44629 4.785127-4.154127 5.560102l4.943721 7.218168H69.34138zM79.332166 80.271723v-4.46384h5.4024l1.181382-3.287707h-6.583782v-4.383788h7.385232l1.182445-3.288247H75.519216V83.56033h11.404162l1.182445-3.288606zM13.088358 80.271723v-4.46384h5.402224l1.180851-3.287707h-6.583075v-4.383788h7.385587l1.181736-3.288247H9.276117V83.56033h11.402924l1.182621-3.288606zM112.550123 72.057818l-.736152-.2666c-1.735266-.669019-2.341176-1.123246-2.341176-2.138736 0-1.069459 1.104582-1.737757 2.314278-1.737757 1.314987 0 2.523975.534639 2.892759 1.496701h3.598297c-.16935-.443434-.459387-1.346671-1.079277-2.167519-1.119623-1.487167-2.973098-2.590805-5.411779-2.590805-3.049899 0-6.021582 1.977733-6.021582 4.99938 0 2.939795 2.182974 4.517268 5.127405 5.48041l.763404.213532c2.182266.74817 3.049899 1.54977 3.049899 2.912811 0 1.630901-1.604139 2.218429-2.892228 2.218429-1.656873 0-3.260658-1.122347-3.760746-2.485928h-.000354l.000354-.00126h-3.501146c.088834.496683.215891.95001.372146 1.364841l.160325.376694c1.10299 2.43286 3.675806 4.007635 6.729421 4.007635 2.576178 0 6.626607-1.658065 6.626607-5.48041 0-2.619768-1.578303-4.704357-5.890455-6.201418M97.407281 72.057818l-.737037-.2666c-1.73562-.669019-2.340114-1.123246-2.340114-2.138736 0-1.069459 1.104051-1.737757 2.314101-1.737757 1.314456 0 2.523975.534639 2.89276 1.496701h3.597588c-.170058-.443434-.458856-1.346671-1.078746-2.167519-1.1198-1.487167-2.973452-2.590805-5.411602-2.590805-3.050607 0-6.021582 1.977733-6.021582 4.99938 0 2.939795 2.182266 4.517268 5.12776 5.48041l.76305.213532c2.181911.74817 3.049544 1.54977 3.049544 2.912811 0 1.630901-1.604316 2.218429-2.892759 2.218429-1.656342 0-3.260835-1.122347-3.75986-2.485928h-.001062l.001061-.00126h-3.502207c.08901.496683.216421.95001.373207 1.364841l.159795.376694c1.10352 2.43286 3.675982 4.007635 6.729066 4.007635 2.576532 0 6.627492-1.658065 6.627492-5.48041 0-2.619768-1.578303-4.704357-5.890455-6.201418" fill="#00A6E6"/><path d="M21.098896 55.53112h1.72217c1.092903 0 1.751724-.502798 1.751724-1.477094 0-.989406-.65882-1.477453-1.751724-1.477453h-1.72217v2.954547zm3.608383 5.800978l-2.560252-3.913551h-1.048132v3.91355h-2.11272V50.673317h3.89488c2.4562 0 3.804279 1.461982 3.804279 3.38071 0 1.507675-.823393 2.724645-2.36719 3.16646l2.816313 4.111612H24.70728zM62.461915 55.53112c1.093433 0 1.752608-.502798 1.752608-1.477094 0-.989406-.659175-1.477453-1.752608-1.477453h-1.722348v2.954547h1.722348zm.059635-4.857804c2.456023 0 3.804809 1.461982 3.804809 3.38071 0 1.91801-1.348786 3.36452-3.804809 3.36452h-1.781983v3.913552H58.62773V50.673316h3.89382z" fill="#1E234F"/><mask id="b" fill="#fff"><use xlinkHref="#a"/></mask><path fill="#1E234F" mask="url(#b)" d="M97.22303 61.332206h2.141212V50.673424h-2.141211zM53.64184 54.79117l-.420633-.152549c-.990443-.380471-1.335514-.640055-1.335514-1.220207 0-.609834.629976-.991925 1.32118-.991925.749425 0 1.439744.305097 1.650503.854488h2.044414c-.111307-.386409-.259245-.715611-.439213-.998041-.000885 0-.001062-.00144-.002124-.0018-.00584-.009893-.011502-.019967-.018227-.030581-.61635-.95109-1.732788-1.685768-3.235352-1.685768-1.74146 0-3.436733 1.130261-3.436733 2.853627 0 1.678752 1.244557 2.578572 2.925496 3.128142l.436029.121967c1.245265.426524 1.740398.88471 1.740398 1.664001 0 .929502-.915766 1.265001-1.650857 1.265001-.945141 0-1.86126-.640595-2.145104-1.418269h-1.97363c.10529.910254.534594 1.46576.672446 1.663102.001238.00108.001238.002878.0023.003958.746947.9975 2.002475 1.612911 3.443988 1.612911 1.470712 0 3.782866-.945512 3.782866-3.126703 0-1.496521-.900724-2.685788-3.362233-3.541354M113.412801 59.459404V56.91645h3.003536l.673154-1.873395h-3.67669v-2.497441h4.191289l.672446-1.872316h-7.03556V61.33208h6.52804l.671562-1.872676zM69.982256 59.459404V56.91645h3.00389l.67227-1.873395h-3.67616v-2.497441h4.190758l.672624-1.872316H67.81043V61.33208h6.527156l.67333-1.872676zM17.31465 50.673334H9.281566l-.684656 1.903257h3.246147v8.755525h2.231992V52.57659h2.555473zM45.535745 50.675798v5.626483l-6.075909-5.757624V61.35005h2.145282v-5.642133l6.075378 5.766438V50.675798zM82.909033 50.675798v5.626483l-6.07644-5.757624V61.35005h2.145636v-5.642133l6.075377 5.766438V50.675798zM93.152995 50.675798v5.626483l-6.076086-5.757624V61.35005h2.145636v-5.642133l6.075024 5.766438V50.675798zM107.366109 50.675798v5.626483l-6.076086-5.757624V61.35005h2.145282v-5.642133l6.075377 5.766438V50.675798z"/><path fill="#00A6E6" mask="url(#b)" d="M135.755333 37.043707l4.539722 10.701776-7.147045-1.59996z"/><path fill="#8F83BD" mask="url(#b)" d="M129.190538 25.346156l12.604126-8.019226-5.987428 16.980727z"/><path d="M118.440595 16.533552c.069723.228103 16.829214 18.406192 16.829214 18.406192l-16.829214-4.992723V16.53355z" fill="#00A6E6" mask="url(#b)"/><path fill="#80CFF4" mask="url(#b)" d="M134.894726 35.59367l-16.45406-3.403198-17.683928 12.888903z"/><path fill="#1E234F" mask="url(#b)" d="M134.894726 35.59367l-34.137988 9.485705h17.683928z"/><path fill="#943F90" mask="url(#b)" d="M134.990638 36.508942l-13.807452 9.782348 4.32047 17.12644z"/><path d="M32.334451 57.066534l.919305-2.435558.919482 2.435558h-1.838787zm3.567152 4.283589h2.320295l-4.968319-10.916388-4.967787 10.916388h2.320117l.99416-2.463801h3.307198l.994336 2.463801z" fill="#1E234F" mask="url(#b)"/></g></g></svg>